<svg id="visual" viewBox="0 0 900 450" width="900" height="450" xmlns="http://www.w3.org/2000/svg" xmlns:xlink="http://www.w3.org/1999/xlink" version="1.1"><rect x="0" y="0" width="900" height="450" fill="#FFFFFF"></rect><defs><linearGradient id="grad1_0" x1="50%" y1="0%" x2="100%" y2="100%"><stop offset="10%" stop-color="#ffffff" stop-opacity="1"></stop><stop offset="90%" stop-color="#ffffff" stop-opacity="1"></stop></linearGradient></defs><defs><linearGradient id="grad2_0" x1="0%" y1="0%" x2="50%" y2="100%"><stop offset="10%" stop-color="#ffffff" stop-opacity="1"></stop><stop offset="90%" stop-color="#ffffff" stop-opacity="1"></stop></linearGradient></defs><g transform="translate(900, 0)"><path d="M0 292.5C-44.9 273.8 -89.8 255.1 -133.5 231.2C-177.2 207.4 -219.9 178.4 -240.8 139C-261.6 99.6 -260.8 49.8 -260 0L0 0Z" fill="#1e3a8a"></path></g><g transform="translate(0, 450)"><path d="M0 -284C50.7 -280.1 101.3 -276.1 146.2 -253.3C191.2 -230.5 230.4 -188.9 248.5 -143.5C266.7 -98.1 263.9 -49.1 261 0L0 0Z" fill="#1e3a8a"></path></g></svg>