<svg id="visual" viewBox="0 0 900 450" width="900" height="450" xmlns="http://www.w3.org/2000/svg" xmlns:xlink="http://www.w3.org/1999/xlink" version="1.1"><rect x="0" y="0" width="900" height="450" fill="#FFFFFF"></rect><path d="M0 414L21.5 417.3C43 420.7 86 427.3 128.8 422.3C171.7 417.3 214.3 400.7 257.2 400.8C300 401 343 418 385.8 425.3C428.7 432.7 471.3 430.3 514.2 422.7C557 415 600 402 642.8 397.5C685.7 393 728.3 397 771.2 396.3C814 395.7 857 390.3 878.5 387.7L900 385L900 451L878.5 451C857 451 814 451 771.2 451C728.3 451 685.7 451 642.8 451C600 451 557 451 514.2 451C471.3 451 428.7 451 385.8 451C343 451 300 451 257.2 451C214.3 451 171.7 451 128.8 451C86 451 43 451 21.5 451L0 451Z" fill="#1e3a8a" stroke-linecap="round" stroke-linejoin="miter"></path></svg>