<svg id="svg" xmlns="http://www.w3.org/2000/svg" xmlns:xlink="http://www.w3.org/1999/xlink" width="400" height="287.7450980392157" viewBox="0, 0, 400,287.7450980392157" version="1.1"><g id="svgg"><path id="path0" d="M199.265 4.885 C 198.456 5.207,198.628 5.335,200.245 5.619 C 203.240 6.144,203.388 6.292,200.962 6.334 C 197.889 6.387,187.892 7.696,185.679 8.335 C 182.717 9.189,183.144 9.671,186.420 9.170 C 235.118 1.724,271.236 49.190,249.754 92.402 C 230.445 131.243,175.338 136.291,149.304 101.603 C 136.945 85.135,133.958 59.554,142.338 41.933 C 146.689 32.784,153.610 22.658,154.740 23.788 C 155.657 24.705,159.314 24.731,160.547 23.829 C 161.588 23.068,159.151 21.084,157.170 21.080 C 156.414 21.079,156.359 20.950,156.857 20.350 C 157.386 19.713,157.615 19.743,158.699 20.595 C 161.267 22.616,166.335 20.813,163.848 18.764 C 163.036 18.095,163.037 18.072,163.883 18.341 C 164.935 18.674,169.118 17.710,169.118 17.134 C 169.118 16.394,167.585 15.199,166.265 14.909 C 165.542 14.750,164.730 14.559,164.461 14.484 C 164.191 14.409,165.074 14.022,166.422 13.623 C 168.200 13.098,169.175 12.454,169.975 11.279 C 171.415 9.165,171.368 8.824,169.640 8.824 C 167.277 8.824,165.885 9.621,165.003 11.479 C 163.996 13.601,163.996 13.601,163.868 11.769 C 163.645 8.574,162.800 7.936,161.185 9.744 C 160.135 10.919,159.847 11.623,160.092 12.410 C 160.412 13.442,160.389 13.449,159.463 12.623 C 157.584 10.947,155.775 13.421,156.404 16.806 C 156.624 17.987,156.595 19.072,156.336 19.338 C 156.056 19.626,155.882 19.139,155.882 18.066 C 155.882 16.966,155.532 16.011,154.927 15.464 C 153.200 13.901,151.347 17.928,152.453 20.840 C 152.898 22.009,152.665 22.479,150.076 25.651 C 137.444 41.128,132.156 58.764,134.983 75.986 C 144.719 135.302,219.990 149.576,252.231 98.222 C 275.038 61.896,252.502 11.819,210.681 5.893 C 200.759 4.488,200.356 4.452,199.265 4.885 M162.411 17.346 C 162.594 17.822,162.390 17.953,161.734 17.781 C 161.218 17.646,160.916 17.340,161.064 17.101 C 161.463 16.456,162.115 16.575,162.411 17.346 M187.500 37.457 C 181.577 40.089,180.724 48.441,185.815 53.955 L 187.749 56.050 188.973 54.900 C 190.434 53.527,190.523 52.660,189.272 51.991 C 184.356 49.360,185.887 39.706,191.220 39.706 C 194.264 39.706,196.517 41.979,195.704 44.228 C 194.458 47.672,195.325 49.990,198.677 52.187 C 200.617 53.458,202.451 51.212,202.451 47.565 C 202.451 46.555,202.692 46.078,203.204 46.078 C 203.617 46.078,204.546 45.692,205.268 45.221 C 206.725 44.268,206.614 44.645,204.653 47.304 C 199.857 53.808,195.098 67.636,195.098 75.070 C 195.098 78.776,192.710 78.659,189.309 74.786 C 184.801 69.652,186.309 62.070,193.333 54.549 C 196.419 51.244,196.651 50.853,195.946 50.148 C 195.004 49.205,193.874 50.024,189.827 54.583 C 181.494 63.969,181.860 75.088,190.653 79.670 C 192.325 80.541,192.619 80.842,191.814 80.860 C 188.546 80.929,187.029 87.330,189.622 90.106 C 194.758 95.605,210.643 93.086,208.380 87.132 C 207.520 84.872,200.681 83.926,199.432 85.894 C 199.164 86.316,199.014 86.121,198.971 85.294 C 198.936 84.620,198.836 83.462,198.748 82.721 C 198.608 81.537,198.753 81.373,199.940 81.373 C 212.208 81.373,218.338 68.520,214.434 50.980 C 213.644 47.428,213.703 44.192,214.622 40.686 C 215.152 38.664,215.485 36.905,215.362 36.776 C 215.086 36.489,210.859 38.680,205.641 41.814 C 201.117 44.530,200.204 44.459,198.571 41.258 C 196.439 37.079,191.876 35.512,187.500 37.457 M211.583 54.286 C 212.657 61.699,212.350 66.480,210.544 70.497 C 208.379 75.311,205.833 77.142,199.800 78.225 L 197.884 78.570 198.179 73.476 C 198.695 64.594,202.633 54.309,208.201 47.304 L 210.539 44.363 210.662 46.569 C 210.729 47.782,211.144 51.255,211.583 54.286 M195.091 81.740 C 195.086 82.269,194.945 82.391,194.723 82.059 C 194.525 81.762,194.032 81.394,193.627 81.240 C 193.136 81.053,193.258 80.947,193.995 80.921 C 194.736 80.895,195.096 81.164,195.091 81.740 M195.481 84.335 C 195.360 85.156,195.445 85.941,195.670 86.080 C 195.895 86.219,196.078 86.774,196.078 87.313 C 196.078 87.869,195.857 88.156,195.567 87.977 C 195.285 87.803,194.744 87.919,194.363 88.235 C 192.382 89.879,191.990 86.085,193.939 84.135 C 195.583 82.492,195.748 82.513,195.481 84.335 M202.166 87.871 C 204.782 87.576,205.472 88.405,203.472 89.440 C 201.956 90.224,197.532 90.408,195.869 89.757 C 195.024 89.426,195.011 89.354,195.747 89.072 C 196.199 88.898,196.569 88.970,196.569 89.231 C 196.569 89.492,197.358 89.706,198.323 89.706 C 199.961 89.706,200.064 89.616,199.870 88.358 C 199.755 87.616,199.749 87.257,199.855 87.560 C 199.975 87.904,200.841 88.020,202.166 87.871 M190.377 92.393 C 189.066 95.810,191.674 97.706,198.197 98.080 C 200.941 98.237,202.396 98.402,201.430 98.447 C 199.302 98.547,198.846 98.916,199.743 99.813 C 201.043 101.113,204.349 100.351,203.785 98.881 C 203.077 97.036,211.165 97.393,214.023 99.332 C 216.741 101.176,218.442 100.375,216.318 98.251 C 214.493 96.425,212.157 95.931,203.676 95.576 C 194.816 95.205,193.627 94.981,193.627 93.682 C 193.627 92.584,190.743 91.440,190.377 92.393 M197.851 94.335 C 198.048 94.849,198.781 95.098,200.093 95.098 C 202.745 95.098,202.322 93.923,199.599 93.722 C 197.918 93.598,197.610 93.706,197.851 94.335 M186.581 139.607 C 186.149 140.305,187.134 141.328,187.941 141.018 C 189.048 140.593,188.921 139.216,187.774 139.216 C 187.251 139.216,186.714 139.392,186.581 139.607 M181.795 146.595 L 180.637 147.601 181.740 147.330 C 184.247 146.714,184.804 146.480,184.804 146.045 C 184.804 145.229,182.982 145.562,181.795 146.595 M72.304 146.579 C 56.830 149.685,50.314 165.985,63.113 169.572 C 66.907 170.636,69.681 168.284,66.659 166.564 C 59.245 162.346,68.851 150.321,79.657 150.293 C 97.187 150.247,92.544 174.363,74.389 177.652 L 72.552 177.985 78.015 169.017 C 81.019 164.085,83.997 159.226,84.631 158.221 C 86.497 155.262,85.237 152.580,81.544 151.653 C 79.972 151.259,80.364 150.763,74.129 161.029 C 71.181 165.882,65.594 174.979,61.713 181.244 C 51.795 197.256,51.899 197.072,52.195 198.005 C 52.599 199.279,54.978 201.304,56.488 201.660 C 58.300 202.087,58.430 201.919,65.249 190.331 C 70.958 180.628,71.109 180.428,72.338 180.895 C 80.443 183.977,93.423 178.308,97.575 169.874 C 104.796 155.206,91.301 142.766,72.304 146.579 M117.041 151.882 C 112.561 156.841,96.372 180.878,92.907 187.715 C 91.476 190.539,91.824 192.289,94.265 194.538 C 95.906 196.050,95.901 196.054,99.706 190.992 C 104.369 184.789,108.450 180.294,113.214 176.113 C 120.160 170.018,120.931 170.152,115.527 176.515 C 109.930 183.106,108.778 186.612,110.875 190.682 C 114.387 197.498,121.393 197.026,127.875 189.537 C 129.343 187.841,129.902 187.447,129.902 188.110 C 129.902 189.765,132.626 193.413,134.540 194.321 C 136.960 195.470,138.929 195.063,142.466 192.686 L 145.272 190.800 146.298 192.336 C 151.412 199.998,161.262 193.667,172.370 175.579 C 174.733 171.730,175.336 171.053,176.191 171.283 C 176.749 171.433,177.371 171.558,177.574 171.562 C 178.423 171.577,177.805 173.281,175.675 176.789 C 166.408 192.056,171.102 201.148,183.945 192.806 L 185.292 191.931 186.799 193.760 C 188.883 196.288,189.248 196.140,192.322 191.520 C 196.325 185.504,209.257 171.348,210.037 172.128 C 210.181 172.272,208.897 174.356,207.184 176.759 C 200.346 186.350,199.048 190.813,202.186 193.950 C 204.296 196.061,205.154 196.015,206.320 193.731 C 208.515 189.428,219.469 176.643,224.110 172.968 C 226.598 170.997,226.199 171.932,222.299 177.206 C 211.745 191.480,222.955 203.239,234.833 190.353 C 237.243 187.738,237.238 187.738,238.685 190.465 C 241.584 195.930,245.397 196.236,252.079 191.542 C 252.810 191.028,253.144 191.200,254.413 192.739 C 258.002 197.092,263.702 196.142,268.933 190.320 L 270.954 188.070 271.806 189.865 C 275.259 197.141,286.378 197.498,293.495 190.562 C 295.808 188.307,295.710 188.290,297.203 191.210 C 300.185 197.043,306.018 196.917,311.900 190.893 L 314.606 188.121 315.455 189.911 C 319.999 199.486,335.345 196.123,342.385 184.009 C 344.285 180.740,341.475 178.119,339.427 181.250 C 334.649 188.555,326.387 192.762,323.320 189.453 C 320.953 186.899,321.533 185.561,325.308 184.865 C 335.348 183.015,341.807 176.526,339.415 170.692 C 336.154 162.736,324.970 166.900,315.462 179.610 C 308.941 188.328,305.489 191.393,303.187 190.509 C 300.907 189.634,302.977 185.306,310.313 175.616 C 313.204 171.797,313.344 170.605,311.106 168.897 C 307.944 166.486,305.555 168.019,300.490 175.712 C 293.043 187.024,284.098 193.203,279.988 189.874 C 276.396 186.966,280.344 177.589,287.073 173.048 C 292.455 169.416,293.448 170.253,288.980 174.655 C 285.599 177.987,285.358 178.448,286.503 179.398 C 289.944 182.254,297.685 175.765,296.305 171.180 C 294.008 163.548,280.743 166.631,274.229 176.311 C 270.811 181.390,265.125 188.248,263.308 189.483 C 258.572 192.701,257.648 188.982,261.593 182.578 C 265.744 175.837,266.027 174.129,263.535 170.861 C 258.367 164.085,248.367 166.453,241.339 176.117 C 240.315 177.525,239.303 178.752,239.089 178.844 C 238.876 178.936,236.945 181.180,234.799 183.830 C 229.332 190.581,226.424 192.379,225.691 189.461 C 225.181 187.428,225.793 186.137,230.137 180.074 C 235.043 173.229,235.229 172.368,232.411 169.550 C 229.493 166.632,225.301 167.545,219.735 172.309 L 217.856 173.917 218.044 172.308 C 218.723 166.490,213.347 165.516,206.993 170.306 C 204.306 172.331,203.694 172.645,204.467 171.599 C 205.892 169.671,205.500 168.571,202.899 167.196 C 199.858 165.588,199.563 165.788,195.291 172.368 C 193.246 175.518,190.876 178.785,190.026 179.628 C 189.176 180.470,187.488 182.452,186.275 184.033 C 182.450 189.015,176.961 192.374,176.961 189.732 C 176.961 188.417,180.033 182.620,183.986 176.478 C 189.413 168.046,189.083 166.833,181.332 166.716 C 177.326 166.655,177.423 166.777,178.575 163.264 C 179.739 159.713,179.444 157.843,177.719 157.843 C 172.239 157.843,165.482 166.952,168.627 170.098 C 169.167 170.637,169.608 171.244,169.608 171.446 C 169.606 173.266,158.014 187.934,155.205 189.670 C 150.640 192.491,149.891 188.842,153.749 182.578 C 157.948 175.761,158.214 174.375,155.929 171.221 C 153.716 168.166,151.350 166.937,147.865 167.034 C 141.646 167.206,137.575 170.584,124.920 186.070 C 121.226 190.591,117.587 192.041,117.250 189.126 C 117.047 187.366,118.012 185.622,121.680 181.130 C 126.978 174.638,127.451 173.925,127.451 172.427 C 127.451 170.330,124.658 167.647,122.475 167.647 C 120.258 167.648,115.663 169.896,111.627 172.955 L 108.303 175.474 112.103 170.703 C 124.953 154.572,124.658 155.150,121.645 151.981 C 119.329 149.547,119.154 149.543,117.041 151.882 M313.844 155.566 C 310.870 158.792,310.815 161.678,313.698 163.221 C 318.426 165.751,323.382 158.496,319.346 154.953 C 317.045 152.933,316.182 153.029,313.844 155.566 M150.319 171.956 C 150.641 174.068,144.087 184.285,139.721 188.480 C 137.355 190.753,135.913 190.088,136.556 187.019 C 138.127 179.527,149.566 167.006,150.319 171.956 M258.240 171.904 C 258.533 173.952,252.060 184.058,247.773 188.245 C 245.206 190.753,243.730 190.216,244.400 187.019 C 245.977 179.493,257.522 166.884,258.240 171.904 M333.324 174.033 C 331.432 176.983,325.686 181.373,323.718 181.373 C 323.236 181.373,325.700 178.183,328.413 175.298 C 333.365 170.030,336.394 169.250,333.324 174.033 M274.269 180.407 C 274.476 181.058,274.108 182.202,273.206 183.716 C 271.511 186.558,270.956 185.214,272.335 181.605 C 273.251 179.207,273.784 178.877,274.269 180.407 M299.549 182.525 C 299.215 183.150,298.423 184.304,297.791 185.090 L 296.641 186.520 296.790 185.294 C 297.132 182.488,299.079 179.063,299.642 180.278 C 300.016 181.085,299.991 181.699,299.549 182.525 M175.368 218.647 C 174.896 218.932,174.510 219.437,174.510 219.769 C 174.510 224.692,163.878 237.725,155.040 243.636 C 150.501 246.672,150.583 246.767,152.976 241.216 C 156.511 233.016,157.417 226.213,155.464 222.541 C 152.552 217.070,142.891 217.254,133.824 222.954 C 121.752 230.543,117.953 245.498,127.854 246.449 C 131.809 246.830,133.682 245.101,131.127 243.427 C 128.187 241.501,130.670 235.476,136.763 229.753 C 144.100 222.860,150.490 221.613,150.490 227.073 C 150.490 231.945,143.513 247.059,141.264 247.059 C 139.261 247.059,137.036 251.055,138.322 252.342 C 138.604 252.624,136.691 255.945,133.315 261.034 C 130.310 265.564,127.740 269.562,127.603 269.919 C 127.115 271.191,130.139 273.529,132.272 273.529 L 134.227 273.529 140.467 263.468 C 143.899 257.934,146.815 253.514,146.947 253.646 C 147.079 253.778,147.249 254.721,147.326 255.742 C 148.324 269.046,157.120 278.052,163.995 272.809 C 166.050 271.241,166.123 269.771,164.134 270.004 C 160.407 270.441,155.900 262.064,155.087 253.186 L 154.818 250.245 157.923 248.585 C 170.273 241.983,180.882 229.764,180.882 222.145 C 180.882 219.276,177.681 217.245,175.368 218.647 M213.636 229.779 C 212.947 230.521,211.240 232.717,209.844 234.660 L 207.305 238.193 203.775 238.337 C 200.369 238.475,200.240 238.526,200.095 239.772 C 199.941 241.104,201.842 243.137,203.242 243.137 C 204.635 243.137,196.866 254.032,194.009 256.085 C 191.800 257.673,191.813 257.725,193.487 254.103 C 199.855 240.326,185.894 234.103,174.400 245.596 C 160.378 259.619,170.654 275.033,186.162 263.239 C 188.041 261.810,189.214 261.275,190.467 261.275 C 191.414 261.275,192.980 260.944,193.948 260.539 C 196.179 259.607,196.078 259.583,196.078 261.049 C 196.078 269.644,207.824 271.232,215.508 263.675 C 217.788 261.433,217.940 261.402,218.362 263.083 C 220.188 270.358,229.561 270.566,237.571 263.510 C 239.980 261.388,240.106 261.338,240.378 262.384 C 241.981 268.545,251.982 268.699,259.303 262.677 C 260.453 261.731,261.570 261.271,262.734 261.264 C 267.026 261.237,273.039 256.638,273.039 253.382 C 273.039 250.551,271.894 250.582,269.219 253.485 C 267.956 254.856,266.282 256.310,265.499 256.715 L 264.075 257.451 265.066 255.809 C 270.452 246.886,265.335 237.602,256.163 239.655 C 251.626 240.670,247.653 243.974,241.990 251.440 C 235.039 260.603,228.539 265.129,225.029 263.251 C 222.840 262.079,225.275 255.726,230.920 247.878 L 233.529 244.249 237.584 243.963 C 244.177 243.498,245.277 241.794,240.380 239.629 L 238.198 238.663 239.932 236.300 C 242.095 233.354,242.092 232.826,239.894 230.394 C 237.105 227.307,236.174 227.854,230.882 235.692 L 229.167 238.233 225.642 238.234 C 223.695 238.235,221.973 238.467,221.797 238.753 C 221.137 239.820,222.106 241.667,223.772 242.522 L 225.470 243.393 222.094 248.549 C 214.861 259.595,205.994 266.218,202.763 262.987 C 201.246 261.470,203.807 255.352,209.039 247.992 L 211.687 244.269 215.980 243.966 C 222.141 243.531,223.243 241.933,218.854 239.801 C 216.509 238.661,216.250 238.211,217.396 237.260 C 217.797 236.927,218.587 235.907,219.152 234.994 L 220.178 233.333 219.117 231.617 C 217.065 228.297,215.502 227.773,213.636 229.779 M189.126 244.736 C 189.254 245.847,188.787 246.543,186.528 248.607 C 183.320 251.539,182.353 253.179,182.353 255.689 C 182.353 257.172,181.991 257.849,180.376 259.385 C 172.821 266.572,171.360 259.996,178.501 250.946 C 184.087 243.867,188.715 241.162,189.126 244.736 M261.176 243.725 C 262.302 244.851,261.838 246.443,260.068 247.537 C 256.980 249.446,253.835 254.653,254.587 256.612 C 255.337 258.566,248.168 263.261,246.778 261.726 C 243.547 258.155,257.794 240.343,261.176 243.725 " stroke="none" fill="#000000" fill-rule="evenodd"></path></g></svg>