<svg id="visual" viewBox="0 0 900 675" width="900" height="675" xmlns="http://www.w3.org/2000/svg" xmlns:xlink="http://www.w3.org/1999/xlink" version="1.1"><path d="M0 618L16.7 616.5C33.3 615 66.7 612 100 618.2C133.3 624.3 166.7 639.7 200 644.5C233.3 649.3 266.7 643.7 300 639C333.3 634.3 366.7 630.7 400 632C433.3 633.3 466.7 639.7 500 638.8C533.3 638 566.7 630 600 627.3C633.3 624.7 666.7 627.3 700 627.7C733.3 628 766.7 626 800 627.2C833.3 628.3 866.7 632.7 883.3 634.8L900 637L900 676L883.3 676C866.7 676 833.3 676 800 676C766.7 676 733.3 676 700 676C666.7 676 633.3 676 600 676C566.7 676 533.3 676 500 676C466.7 676 433.3 676 400 676C366.7 676 333.3 676 300 676C266.7 676 233.3 676 200 676C166.7 676 133.3 676 100 676C66.7 676 33.3 676 16.7 676L0 676Z" fill="#1e3a8a"></path><path d="M0 626L16.7 627.3C33.3 628.7 66.7 631.3 100 632.8C133.3 634.3 166.7 634.7 200 638.8C233.3 643 266.7 651 300 654.3C333.3 657.7 366.7 656.3 400 655C433.3 653.7 466.7 652.3 500 648.8C533.3 645.3 566.7 639.7 600 639.5C633.3 639.3 666.7 644.7 700 647.2C733.3 649.7 766.7 649.3 800 646.7C833.3 644 866.7 639 883.3 636.5L900 634L900 676L883.3 676C866.7 676 833.3 676 800 676C766.7 676 733.3 676 700 676C666.7 676 633.3 676 600 676C566.7 676 533.3 676 500 676C466.7 676 433.3 676 400 676C366.7 676 333.3 676 300 676C266.7 676 233.3 676 200 676C166.7 676 133.3 676 100 676C66.7 676 33.3 676 16.7 676L0 676Z" fill="#7376b1"></path><path d="M0 653L16.7 654.7C33.3 656.3 66.7 659.7 100 660.7C133.3 661.7 166.7 660.3 200 660.8C233.3 661.3 266.7 663.7 300 660.3C333.3 657 366.7 648 400 646.8C433.3 645.7 466.7 652.3 500 656.3C533.3 660.3 566.7 661.7 600 658C633.3 654.3 666.7 645.7 700 644.7C733.3 643.7 766.7 650.3 800 655.2C833.3 660 866.7 663 883.3 664.5L900 666L900 676L883.3 676C866.7 676 833.3 676 800 676C766.7 676 733.3 676 700 676C666.7 676 633.3 676 600 676C566.7 676 533.3 676 500 676C466.7 676 433.3 676 400 676C366.7 676 333.3 676 300 676C266.7 676 233.3 676 200 676C166.7 676 133.3 676 100 676C66.7 676 33.3 676 16.7 676L0 676Z" fill="#b9b8d8"></path><path d="M0 650L16.7 650C33.3 650 66.7 650 100 650C133.3 650 166.7 650 200 650.2C233.3 650.3 266.7 650.7 300 652.3C333.3 654 366.7 657 400 658.3C433.3 659.7 466.7 659.3 500 658.7C533.3 658 566.7 657 600 658.2C633.3 659.3 666.7 662.7 700 664.5C733.3 666.3 766.7 666.7 800 664.2C833.3 661.7 866.7 656.3 883.3 653.7L900 651L900 676L883.3 676C866.7 676 833.3 676 800 676C766.7 676 733.3 676 700 676C666.7 676 633.3 676 600 676C566.7 676 533.3 676 500 676C466.7 676 433.3 676 400 676C366.7 676 333.3 676 300 676C266.7 676 233.3 676 200 676C166.7 676 133.3 676 100 676C66.7 676 33.3 676 16.7 676L0 676Z" fill="#ffffff"></path></svg>