<svg id="visual" viewBox="0 0 900 675" width="900" height="675" xmlns="http://www.w3.org/2000/svg" xmlns:xlink="http://www.w3.org/1999/xlink" version="1.1"><path d="M0 641L16.7 637.8C33.3 634.7 66.7 628.3 100 629.3C133.3 630.3 166.7 638.7 200 641.7C233.3 644.7 266.7 642.3 300 638.5C333.3 634.7 366.7 629.3 400 628.8C433.3 628.3 466.7 632.7 500 635.2C533.3 637.7 566.7 638.3 600 636C633.3 633.7 666.7 628.3 700 627.7C733.3 627 766.7 631 800 630.8C833.3 630.7 866.7 626.3 883.3 624.2L900 622L900 676L883.3 676C866.7 676 833.3 676 800 676C766.7 676 733.3 676 700 676C666.7 676 633.3 676 600 676C566.7 676 533.3 676 500 676C466.7 676 433.3 676 400 676C366.7 676 333.3 676 300 676C266.7 676 233.3 676 200 676C166.7 676 133.3 676 100 676C66.7 676 33.3 676 16.7 676L0 676Z" fill="#1976d2"></path><path d="M0 653L16.7 652.5C33.3 652 66.7 651 100 648.2C133.3 645.3 166.7 640.7 200 638.8C233.3 637 266.7 638 300 639.3C333.3 640.7 366.7 642.3 400 645.2C433.3 648 466.7 652 500 651.7C533.3 651.3 566.7 646.7 600 644.5C633.3 642.3 666.7 642.7 700 642.2C733.3 641.7 766.7 640.3 800 640.7C833.3 641 866.7 643 883.3 644L900 645L900 676L883.3 676C866.7 676 833.3 676 800 676C766.7 676 733.3 676 700 676C666.7 676 633.3 676 600 676C566.7 676 533.3 676 500 676C466.7 676 433.3 676 400 676C366.7 676 333.3 676 300 676C266.7 676 233.3 676 200 676C166.7 676 133.3 676 100 676C66.7 676 33.3 676 16.7 676L0 676Z" fill="#6eaae8"></path><path d="M0 655L16.7 656.3C33.3 657.7 66.7 660.3 100 659.8C133.3 659.3 166.7 655.7 200 655.5C233.3 655.3 266.7 658.7 300 659.8C333.3 661 366.7 660 400 658.7C433.3 657.3 466.7 655.7 500 655C533.3 654.3 566.7 654.7 600 655C633.3 655.3 666.7 655.7 700 657.3C733.3 659 766.7 662 800 661C833.3 660 866.7 655 883.3 652.5L900 650L900 676L883.3 676C866.7 676 833.3 676 800 676C766.7 676 733.3 676 700 676C666.7 676 633.3 676 600 676C566.7 676 533.3 676 500 676C466.7 676 433.3 676 400 676C366.7 676 333.3 676 300 676C266.7 676 233.3 676 200 676C166.7 676 133.3 676 100 676C66.7 676 33.3 676 16.7 676L0 676Z" fill="#bbdefb"></path></svg>