<svg id="visual" viewBox="0 0 900 675" width="900" height="675" xmlns="http://www.w3.org/2000/svg" xmlns:xlink="http://www.w3.org/1999/xlink" version="1.1"><path d="M0 659L21.5 656.3C43 653.7 86 648.3 128.8 647.3C171.7 646.3 214.3 649.7 257.2 644.3C300 639 343 625 385.8 618.8C428.7 612.7 471.3 614.3 514.2 617.8C557 621.3 600 626.7 642.8 629.2C685.7 631.7 728.3 631.3 771.2 630.8C814 630.3 857 629.7 878.5 629.3L900 629L900 676L878.5 676C857 676 814 676 771.2 676C728.3 676 685.7 676 642.8 676C600 676 557 676 514.2 676C471.3 676 428.7 676 385.8 676C343 676 300 676 257.2 676C214.3 676 171.7 676 128.8 676C86 676 43 676 21.5 676L0 676Z" fill="#1e3a8a"></path><path d="M0 665L21.5 665C43 665 86 665 128.8 658.5C171.7 652 214.3 639 257.2 637.2C300 635.3 343 644.7 385.8 648.8C428.7 653 471.3 652 514.2 648.5C557 645 600 639 642.8 640.8C685.7 642.7 728.3 652.3 771.2 650.8C814 649.3 857 636.7 878.5 630.3L900 624L900 676L878.5 676C857 676 814 676 771.2 676C728.3 676 685.7 676 642.8 676C600 676 557 676 514.2 676C471.3 676 428.7 676 385.8 676C343 676 300 676 257.2 676C214.3 676 171.7 676 128.8 676C86 676 43 676 21.5 676L0 676Z" fill="#7376b1"></path><path d="M0 643L21.5 644.3C43 645.7 86 648.3 128.8 647.8C171.7 647.3 214.3 643.7 257.2 645.3C300 647 343 654 385.8 655.7C428.7 657.3 471.3 653.7 514.2 653.5C557 653.3 600 656.7 642.8 655.2C685.7 653.7 728.3 647.3 771.2 644.3C814 641.3 857 641.7 878.5 641.8L900 642L900 676L878.5 676C857 676 814 676 771.2 676C728.3 676 685.7 676 642.8 676C600 676 557 676 514.2 676C471.3 676 428.7 676 385.8 676C343 676 300 676 257.2 676C214.3 676 171.7 676 128.8 676C86 676 43 676 21.5 676L0 676Z" fill="#b9b8d8"></path><path d="M0 665L21.5 666C43 667 86 669 128.8 670C171.7 671 214.3 671 257.2 668.7C300 666.3 343 661.7 385.8 658.3C428.7 655 471.3 653 514.2 652.2C557 651.3 600 651.7 642.8 655C685.7 658.3 728.3 664.7 771.2 667.8C814 671 857 671 878.5 671L900 671L900 676L878.5 676C857 676 814 676 771.2 676C728.3 676 685.7 676 642.8 676C600 676 557 676 514.2 676C471.3 676 428.7 676 385.8 676C343 676 300 676 257.2 676C214.3 676 171.7 676 128.8 676C86 676 43 676 21.5 676L0 676Z" fill="#ffffff"></path></svg>