<svg id="visual" viewBox="0 0 900 675" width="900" height="675" xmlns="http://www.w3.org/2000/svg" xmlns:xlink="http://www.w3.org/1999/xlink" version="1.1"><path d="M0 605L15 609.7C30 614.3 60 623.7 90 621.5C120 619.3 150 605.7 180 597.7C210 589.7 240 587.3 270 592.7C300 598 330 611 360 609.5C390 608 420 592 450 584C480 576 510 576 540 586.3C570 596.7 600 617.3 630 620C660 622.7 690 607.3 720 602C750 596.7 780 601.3 810 608.7C840 616 870 626 885 631L900 636L900 676L885 676C870 676 840 676 810 676C780 676 750 676 720 676C690 676 660 676 630 676C600 676 570 676 540 676C510 676 480 676 450 676C420 676 390 676 360 676C330 676 300 676 270 676C240 676 210 676 180 676C150 676 120 676 90 676C60 676 30 676 15 676L0 676Z" fill="#FFFFFF" stroke-linecap="round" stroke-linejoin="miter"></path></svg>