<svg id="visual" viewBox="0 0 900 675" width="900" height="675" xmlns="http://www.w3.org/2000/svg" xmlns:xlink="http://www.w3.org/1999/xlink" version="1.1"><path d="M0 632L13.7 631.7C27.3 631.3 54.7 630.7 82 628.2C109.3 625.7 136.7 621.3 163.8 619.7C191 618 218 619 245.2 622.5C272.3 626 299.7 632 327 637.2C354.3 642.3 381.7 646.7 409 645.7C436.3 644.7 463.7 638.3 491 632.7C518.3 627 545.7 622 573 622.2C600.3 622.3 627.7 627.7 654.8 631.8C682 636 709 639 736.2 642.2C763.3 645.3 790.7 648.7 818 647.7C845.3 646.7 872.7 641.3 886.3 638.7L900 636L900 676L886.3 676C872.7 676 845.3 676 818 676C790.7 676 763.3 676 736.2 676C709 676 682 676 654.8 676C627.7 676 600.3 676 573 676C545.7 676 518.3 676 491 676C463.7 676 436.3 676 409 676C381.7 676 354.3 676 327 676C299.7 676 272.3 676 245.2 676C218 676 191 676 163.8 676C136.7 676 109.3 676 82 676C54.7 676 27.3 676 13.7 676L0 676Z" fill="#FFFFFF" stroke-linecap="round" stroke-linejoin="miter"></path></svg>